<?xml version="1.0" encoding="UTF-8" standalone="no"?>
<!-- Created with Inkscape (http://www.inkscape.org/) -->

<svg
   xmlns:dc="http://purl.org/dc/elements/1.1/"
   xmlns:cc="http://creativecommons.org/ns#"
   xmlns:rdf="http://www.w3.org/1999/02/22-rdf-syntax-ns#"
   xmlns:svg="http://www.w3.org/2000/svg"
   xmlns="http://www.w3.org/2000/svg"
   xmlns:sodipodi="http://sodipodi.sourceforge.net/DTD/sodipodi-0.dtd"
   xmlns:inkscape="http://www.inkscape.org/namespaces/inkscape"
   width="210"
   height="64"
   viewBox="0 0 210 64"
   version="1.1"
   id="svg5969"
   inkscape:version="0.92.1 r15371"
   sodipodi:docname="Ceiling.svg">
  <defs
     id="defs5963" />
  <sodipodi:namedview
     id="base"
     pagecolor="#ffffff"
     bordercolor="#666666"
     borderopacity="1.0"
     inkscape:pageopacity="0.0"
     inkscape:pageshadow="2"
     inkscape:zoom="1.4142136"
     inkscape:cx="150.264"
     inkscape:cy="-92.230447"
     inkscape:document-units="px"
     inkscape:current-layer="layer1"
     showgrid="false"
     inkscape:window-width="1600"
     inkscape:window-height="837"
     inkscape:window-x="-8"
     inkscape:window-y="-8"
     inkscape:window-maximized="1"
     units="px"
     showguides="false"
     inkscape:guide-bbox="true">
    <sodipodi:guide
       position="0,63.241658"
       orientation="1,0"
       id="guide11"
       inkscape:locked="false" />
    <sodipodi:guide
       position="0.88291925,64.001379"
       orientation="0,1"
       id="guide13"
       inkscape:locked="false" />
    <sodipodi:guide
       position="210.37891,-0.00390625"
       orientation="0,1"
       id="guide15"
       inkscape:locked="false" />
    <sodipodi:guide
       position="210,-0.453125"
       orientation="1,0"
       id="guide17"
       inkscape:locked="false" />
  </sodipodi:namedview>
  <metadata
     id="metadata5966">
    <rdf:RDF>
      <cc:Work
         rdf:about="">
        <dc:format>image/svg+xml</dc:format>
        <dc:type
           rdf:resource="http://purl.org/dc/dcmitype/StillImage" />
        <dc:title></dc:title>
      </cc:Work>
    </rdf:RDF>
  </metadata>
  <g
     inkscape:label="Layer 1"
     inkscape:groupmode="layer"
     id="layer1"
     transform="translate(0,-201.62498)">
    <rect
       style="opacity:1;fill:#a4adeb;fill-opacity:1;stroke:none;stroke-width:1.1547482;stroke-miterlimit:4;stroke-dasharray:none;stroke-opacity:1"
       id="rect5952"
       width="210"
       height="64.005295"
       x="9.4368957e-015"
       y="201.6236"
       inkscape:label="#rect5952" />
    <path
       inkscape:connector-curvature="0"
       d="m 167.48857,251.54444 c 1.47765,1.09767 1.47765,1.09767 2.5331,-0.3799 l 23.55784,-32.42372 c 1.05546,-1.43544 1.05546,-1.43544 -0.37988,-2.49091 -1.47761,-1.09769 -1.47761,-1.09769 -2.53307,0.37988 l -23.60008,32.42374 c -1.05546,1.43544 -1.05546,1.43544 0.42219,2.49091 z m 12.83441,-3.0819 c -1.8154,0 -1.8154,0 -1.8154,1.81533 v 3.63081 c 0,1.81538 0,1.81538 1.8154,1.81538 1.8154,0 1.8154,0 1.8154,-1.81538 v -3.63081 c 0,-1.81533 0,-1.81533 -1.8154,-1.81533 z m 11.10341,-2.36423 c -1.05543,-1.47766 -1.05543,-1.47766 -2.53307,-0.37991 -1.43543,1.05547 -1.43543,1.05547 -0.37989,2.49092 l 2.15313,2.95527 c 1.05543,1.47766 1.05543,1.47766 2.53307,0.37988 1.43543,-1.05547 1.43543,-1.05547 0.37988,-2.49091 z m 8.52805,-7.76823 -3.50409,-1.09762 c -1.73095,-0.59111 -1.73095,-0.59111 -2.27977,1.18209 -0.54886,1.73088 -0.54886,1.73088 1.18209,2.27983 l 3.46191,1.13984 c 1.73093,0.54886 1.73093,0.54886 2.27976,-1.18211 0.54885,-1.73091 0.54885,-1.73091 -1.1399,-2.32203 z m -35.75889,-1.09762 -3.50413,1.09762 c -1.73096,0.59112 -1.73096,0.59112 -1.18212,2.27983 0.59107,1.73092 0.59107,1.73092 2.27979,1.18214 l 3.46191,-1.13994 c 1.73095,-0.59106 1.73095,-0.59106 1.18212,-2.2798 -0.50662,-1.68871 -0.50662,-1.68871 -2.23757,-1.13985 z m 23.38902,-3.33528 c 0,3.50411 -2.49091,6.41718 -5.74172,7.13487 l -2.70199,3.71527 c 0.37997,0.0431 0.75994,0.0844 1.18212,0.0844 6.03722,0 10.93456,-4.89736 10.93456,-10.93461 0,-1.60433 -0.33767,-3.0819 -0.92884,-4.47517 l -2.74413,3.75747 c 0,0.25326 0,0.4644 0,0.7177 z m 6.58601,-4.51735 c 0.59102,1.73097 0.59102,1.73097 2.27977,1.18211 l 3.50409,-1.09769 c 1.73096,-0.59104 1.73096,-0.59104 1.18211,-2.27977 -0.59104,-1.73101 -0.59104,-1.73101 -2.27976,-1.18215 l -3.46191,1.13994 c -1.77316,0.54881 -1.77316,0.54881 -1.2243,2.23756 z m -28.87735,-2.27982 -3.46191,-1.13989 c -1.73095,-0.54881 -1.73095,-0.54881 -2.2798,1.1821 -0.54885,1.73099 -0.54885,1.73099 1.18211,2.27977 l 3.50414,1.09764 c 1.73094,0.59111 1.73094,0.59111 2.27979,-1.18206 0.50662,-1.64653 0.50662,-1.64653 -1.22433,-2.23756 z m 7.76818,6.79717 c 0,-4.01074 3.29304,-7.26156 7.26157,-7.26156 2.23758,0 4.26405,1.01325 5.61504,2.61754 l 2.19534,-2.99753 c -1.98425,-2.02647 -4.77066,-3.29303 -7.81038,-3.29303 -6.03723,0 -10.93458,4.89732 -10.93458,10.93458 0,4.30628 2.4909,7.97925 6.03725,9.79468 l 2.19534,-3.03975 c -2.70195,-1.05545 -4.55958,-3.71521 -4.55958,-6.75493 z m -1.30876,-11.77895 c 1.43543,-1.05543 1.43543,-1.05543 0.37997,-2.49087 l -2.15314,-2.95531 c -1.05546,-1.47762 -1.05546,-1.47762 -2.53311,-0.37989 -1.43542,1.05547 -1.43542,1.05547 -0.37996,2.49087 l 2.15312,2.95531 c 1.05547,1.43539 1.05547,1.43539 2.53312,0.37989 z m 8.57033,-2.78639 c 1.8154,0 1.8154,0 1.8154,-1.81541 v -3.63081 c 0,-1.81533 0,-1.81533 -1.8154,-1.81533 -1.8154,0 -1.8154,0 -1.8154,1.81533 v 3.63081 c 0,1.81541 0,1.81541 1.8154,1.81541 z"
       id="path5056"
       style="stroke-width:0.42218414" />
    <path
       inkscape:connector-curvature="0"
       d="m 123.20536,238.74638 c -0.59107,1.85754 -0.59107,1.85754 1.30877,2.49086 l 1.8576,0.59104 c 1.89983,0.63328 1.89983,0.63328 2.49089,-1.26652 0.63328,-1.89989 0.63328,-1.89989 -1.26656,-2.49091 l -1.89983,-0.59107 c -1.85761,-0.63329 -1.85761,-0.63329 -2.49087,1.2666 z M 87.404124,227.09407 c -0.633284,1.89981 -0.633284,1.89981 1.266544,2.49091 l 1.899838,0.59098 c 1.857604,0.63327 1.857604,0.63327 2.490888,-1.26652 0.59106,-1.85758 0.59106,-1.85758 -1.308779,-2.49086 l -1.857604,-0.59108 c -1.899839,-0.63328 -1.899839,-0.63328 -2.490887,1.26657 z m 30.059516,-6.07947 c 1.6043,1.18214 1.6043,1.18214 2.78642,-0.42209 l 1.13989,-1.60428 c 1.18211,-1.60433 1.18211,-1.60433 -0.42218,-2.78644 -1.60429,-1.13989 -1.60429,-1.13989 -2.78641,0.4221 l -1.18212,1.64651 c -1.1399,1.60432 -1.1399,1.60432 0.4644,2.7442 z m -22.122453,30.48173 c 1.604293,1.13993 1.604293,1.13993 2.786413,-0.42211 l 1.1399,-1.60432 c 1.1399,-1.60429 1.1399,-1.60429 -0.42219,-2.74422 -1.6043,-1.1821 -1.6043,-1.1821 -2.78642,0.42209 l -1.139892,1.60433 c -1.224343,1.60429 -1.224343,1.60429 0.422177,2.74419 z M 98.8031,221.0146 c 1.6043,-1.13988 1.6043,-1.13988 0.42218,-2.7442 l -1.13989,-1.6043 c -1.18212,-1.60429 -1.18212,-1.60429 -2.786415,-0.4221 -1.604309,1.1399 -1.604309,1.1399 -0.422189,2.78644 l 1.139894,1.60428 c 1.18212,1.5621 1.18212,1.5621 2.78642,0.37988 z m 22.12245,30.48173 c 1.6043,-1.13994 1.6043,-1.13994 0.42219,-2.78643 l -1.13991,-1.60433 c -1.13989,-1.60428 -1.13989,-1.60428 -2.78641,-0.4221 -1.6043,1.13989 -1.6043,1.13989 -0.42218,2.74421 l 1.13988,1.60433 c 1.22435,1.60433 1.22435,1.60433 2.78643,0.4644 z M 93.061394,238.74642 c -0.633284,-1.89989 -0.633284,-1.89989 -2.490888,-1.2666 l -1.899838,0.59107 c -1.899828,0.59102 -1.899828,0.59102 -1.266544,2.49096 0.591048,1.89979 0.591048,1.89979 2.490887,1.26651 l 1.857604,-0.59103 c 1.899839,-0.59107 1.899839,-0.59107 1.308779,-2.49091 z m 35.801226,-11.65231 c -0.59106,-1.8998 -0.59106,-1.8998 -2.49089,-1.26656 l -1.8576,0.59107 c -1.89984,0.63324 -1.89984,0.63324 -1.30877,2.49087 0.63326,1.8998 0.63326,1.8998 2.49087,1.26652 l 1.89983,-0.59095 c 1.89984,-0.59115 1.89984,-0.59115 1.26656,-2.49095 z m -20.72925,22.62905 c -1.98427,0 -1.98427,0 -1.98427,1.98426 v 1.98426 c 0,1.98427 0,1.98427 1.98427,1.98427 1.98426,0 1.98426,0 1.98426,-1.98427 v -1.98426 c 0,-1.98426 0,-1.98426 -1.98426,-1.98426 z m 0,-37.65878 c -1.98427,0 -1.98427,0 -1.98427,1.98427 v 1.98426 c 0,1.98426 0,1.98426 1.98427,1.98426 1.98426,0 1.98426,0 1.98426,-1.98426 v -1.98426 c 0,-1.98427 0,-1.98427 -1.98426,-1.98427 z m 0,29.72172 c -4.39072,0 -7.93707,-3.54629 -7.93707,-7.93704 0,-4.39075 3.54635,-7.93705 7.93707,-7.93705 4.39072,0 7.93706,3.5463 7.93706,7.93705 0,4.39075 -3.54634,7.93704 -7.93706,7.93704 z m 0,3.96853 c 6.58608,0 11.90559,-5.31955 11.90559,-11.90557 0,-6.58603 -5.31951,-11.90558 -11.90559,-11.90558 -6.58608,0 -11.9056,5.31955 -11.9056,11.90558 0,6.58611 5.31952,11.90557 11.9056,11.90557 z"
       id="path4499"
       style="stroke-width:0.42218414" />
    <path
       inkscape:connector-curvature="0"
       d="m 43.205077,238.40857 c -0.548848,1.73095 -0.548848,1.73095 1.182109,2.27981 l 3.461913,1.1399 c 1.730956,0.54881 1.730956,0.54881 2.279793,-1.1821 0.548836,-1.73097 0.548836,-1.73097 -1.182109,-2.27983 l -3.504136,-1.09767 c -1.688733,-0.59102 -1.688733,-0.59102 -2.23757,1.13989 z M 8.58596,227.13628 c -0.548837,1.73095 -0.548837,1.73095 1.18212,2.27982 l 3.504125,1.09767 c 1.730956,0.59103 1.730956,0.59103 2.279804,-1.18214 0.548837,-1.73096 0.548837,-1.73096 -1.182131,-2.27977 l -3.461902,-1.13989 c -1.773168,-0.50665 -1.773168,-0.50665 -2.322016,1.22431 z m 29.341813,-5.02404 c 1.477638,1.09768 1.477638,1.09768 2.533099,-0.37989 l 2.153145,-2.95527 c 1.055461,-1.43544 1.055461,-1.43544 -0.379976,-2.4909 -1.47765,-1.09769 -1.47765,-1.09769 -2.533111,0.37988 l -2.153146,2.95531 c -1.097673,1.43541 -1.097673,1.43541 0.379977,2.49084 z m -21.40475,29.4263 c 1.477639,1.09767 1.477639,1.09767 2.5331,-0.3799 l 2.153145,-2.9553 c 1.055461,-1.43541 1.055461,-1.43541 -0.379977,-2.49087 -1.477638,-1.09768 -1.477638,-1.09768 -2.533111,0.37989 l -2.153134,2.95526 c -1.097684,1.43545 -1.097684,1.43545 0.379977,2.49092 z m 4.264067,-29.4263 c 1.435427,-1.05543 1.435427,-1.05543 0.379977,-2.49082 l -2.153145,-2.95532 c -1.055461,-1.47765 -1.055461,-1.47765 -2.533111,-0.37989 -1.435426,1.05547 -1.435426,1.05547 -0.379977,2.49092 l 2.153146,2.95526 c 1.055461,1.43545 1.055461,1.43545 2.533099,0.3799 z m 21.404738,29.4263 c 1.435427,-1.05547 1.435427,-1.05547 0.379977,-2.49092 l -2.153134,-2.95526 c -1.055461,-1.47766 -1.055461,-1.47766 -2.533111,-0.37989 -1.435426,1.05546 -1.435426,1.05546 -0.379976,2.49087 l 2.153145,2.9553 c 1.055461,1.47766 1.055461,1.47766 2.533099,0.3799 z M 15.509786,238.40857 c -0.59106,-1.73091 -0.59106,-1.73091 -2.279805,-1.1821 l -3.504125,1.09768 c -1.730945,0.59106 -1.730945,0.59106 -1.18212,2.27977 0.591072,1.73096 0.591072,1.73096 2.279805,1.18215 l 3.461901,-1.13989 c 1.77318,-0.54886 1.77318,-0.54886 1.224344,-2.23761 z m 34.619106,-11.27229 c -0.591049,-1.73096 -0.591049,-1.73096 -2.279793,-1.1821 l -3.461913,1.13989 c -1.730957,0.59103 -1.730957,0.59103 -1.182109,2.27977 0.59106,1.73096 0.59106,1.73096 2.279793,1.1821 l 3.504125,-1.09767 c 1.688733,-0.59104 1.688733,-0.59104 1.139897,-2.32199 z m -20.771466,21.32027 c -1.815404,0 -1.815404,0 -1.815404,1.81538 v 3.6308 c 0,1.81544 0,1.81544 1.815404,1.81544 1.815392,0 1.815392,0 1.815392,-1.81544 v -3.6308 c 0,-1.81538 0,-1.81538 -1.815392,-1.81538 z m 0,-36.39225 c -1.815404,0 -1.815404,0 -1.815404,1.81538 v 3.63076 c 0,1.81538 0,1.81538 1.815404,1.81538 1.815392,0 1.815392,0 1.815392,-1.81538 v -3.63076 c 0,-1.81538 0,-1.81538 -1.815392,-1.81538 z m 0,29.08849 c -4.01075,0 -7.261568,-3.25083 -7.261568,-7.26156 0,-4.01074 3.250818,-7.26156 7.261568,-7.26156 4.010749,0 7.261568,3.25082 7.261568,7.26156 0,4.01073 -3.250819,7.26156 -7.261568,7.26156 z m 0,3.67301 c 6.037236,0 10.934575,-4.89731 10.934575,-10.93457 0,-6.03722 -4.897339,-10.93457 -10.934575,-10.93457 -6.037236,0 -10.934575,4.89735 -10.934575,10.93457 0,6.03726 4.897339,10.93457 10.934575,10.93457 z"
       id="path4485"
       style="stroke-width:0.42218414" />
  </g>
</svg>
