<?xml version="1.0" encoding="UTF-8" standalone="no"?>
<!-- Created with Inkscape (http://www.inkscape.org/) -->

<svg
   xmlns:dc="http://purl.org/dc/elements/1.1/"
   xmlns:cc="http://creativecommons.org/ns#"
   xmlns:rdf="http://www.w3.org/1999/02/22-rdf-syntax-ns#"
   xmlns:svg="http://www.w3.org/2000/svg"
   xmlns="http://www.w3.org/2000/svg"
   xmlns:sodipodi="http://sodipodi.sourceforge.net/DTD/sodipodi-0.dtd"
   xmlns:inkscape="http://www.inkscape.org/namespaces/inkscape"
   width="280"
   height="64"
   viewBox="0 0 55.5625 12.7"
   version="1.1"
   id="abc"
   inkscape:version="0.92.1 r15371"
   sodipodi:docname="Ceiling.svg">
  <defs
     id="defs6087" />
  <sodipodi:namedview
     id="base"
     pagecolor="#ffffff"
     bordercolor="#666666"
     borderopacity="1.0"
     inkscape:pageopacity="0.0"
     inkscape:pageshadow="2"
     inkscape:zoom="1.8317246"
     inkscape:cx="156.99986"
     inkscape:cy="4.9850585"
     inkscape:document-units="mm"
     inkscape:current-layer="layer1"
     showgrid="false"
     inkscape:window-width="1600"
     inkscape:window-height="837"
     inkscape:window-x="-8"
     inkscape:window-y="-8"
     inkscape:window-maximized="1"
     units="px"
     inkscape:pagecheckerboard="true"
     showguides="true"
     inkscape:guide-bbox="true"
     showborder="false" />
  <metadata
     id="metadata6090">
    <rdf:RDF>
      <cc:Work
         rdf:about="">
        <dc:format>image/svg+xml</dc:format>
        <dc:type
           rdf:resource="http://purl.org/dc/dcmitype/StillImage" />
        <dc:title></dc:title>
      </cc:Work>
    </rdf:RDF>
  </metadata>
  <g
     inkscape:label="Layer 1"
     inkscape:groupmode="layer"
     id="layer1"
     transform="translate(0,-280.06659)">
    <rect
       style="opacity:1;fill:#a4adeb;fill-opacity:1;stroke:none;stroke-width:0.19297165;stroke-miterlimit:4;stroke-dasharray:none;stroke-opacity:1"
       id="rect5289-0"
       width="55.5625"
       height="12.7"
       x="0"
       y="280.06659" />
    <path
       inkscape:connector-curvature="0"
       d="m 43.307434,290.64975 c 0.343068,0.25485 0.343068,0.25485 0.588116,-0.0882 l 5.469478,-7.52788 c 0.245047,-0.33327 0.245047,-0.33327 -0.08822,-0.57832 -0.343067,-0.25485 -0.343067,-0.25485 -0.588115,0.0882 l -5.47928,7.52788 c -0.245047,0.33327 -0.245047,0.33327 0.09802,0.57832 z m 2.979787,-0.71553 c -0.421483,0 -0.421483,0 -0.421483,0.42147 v 0.84297 c 0,0.42148 0,0.42148 0.421483,0.42148 0.421483,0 0.421483,0 0.421483,-0.42148 v -0.84297 c 0,-0.42147 0,-0.42147 -0.421483,-0.42147 z m 2.577907,-0.54891 c -0.245048,-0.34307 -0.245048,-0.34307 -0.588115,-0.0882 -0.333266,0.24505 -0.333266,0.24505 -0.08822,0.57832 l 0.499899,0.68613 c 0.245048,0.34307 0.245048,0.34307 0.588115,0.0882 0.333266,-0.24505 0.333266,-0.24505 0.08822,-0.57832 z m 1.979991,-1.80356 -0.813561,-0.25484 c -0.401879,-0.13724 -0.401879,-0.13724 -0.529304,0.27445 -0.127425,0.40186 -0.127425,0.40186 0.274454,0.52931 l 0.803758,0.26464 c 0.40188,0.12743 0.40188,0.12743 0.529304,-0.27445 0.127425,-0.40187 0.127425,-0.40187 -0.264651,-0.53911 z m -8.302235,-0.25484 -0.813561,0.25484 c -0.401879,0.13724 -0.401879,0.13724 -0.274454,0.52931 0.137227,0.40187 0.137227,0.40187 0.529304,0.27446 l 0.803759,-0.26466 c 0.401878,-0.13723 0.401878,-0.13723 0.274454,-0.52931 -0.117623,-0.39207 -0.117623,-0.39207 -0.519502,-0.26464 z m 5.430269,-0.77436 c 0,0.81356 -0.578314,1.48989 -1.333063,1.65652 l -0.627323,0.86258 c 0.08822,0.01 0.176435,0.0196 0.274454,0.0196 1.401676,0 2.5387,-1.13703 2.5387,-2.53871 0,-0.37248 -0.07842,-0.71553 -0.215643,-1.03901 l -0.637125,0.87238 c 0,0.0588 0,0.10782 0,0.16663 z m 1.529101,-1.0488 c 0.137227,0.40188 0.137227,0.40188 0.529304,0.27445 l 0.813561,-0.25485 c 0.401879,-0.13722 0.401879,-0.13722 0.274453,-0.5293 -0.137226,-0.40189 -0.137226,-0.40189 -0.529303,-0.27446 l -0.803759,0.26466 c -0.411681,0.12742 -0.411681,0.12742 -0.284256,0.5195 z m -6.70452,-0.52931 -0.803759,-0.26465 c -0.401879,-0.12742 -0.401879,-0.12742 -0.529303,0.27445 -0.127426,0.40189 -0.127426,0.40189 0.274453,0.5293 l 0.81356,0.25484 c 0.401879,0.13724 0.401879,0.13724 0.529305,-0.27444 0.117623,-0.38228 0.117623,-0.38228 -0.284256,-0.5195 z m 1.803555,1.57811 c 0,-0.93118 0.76455,-1.68593 1.685932,-1.68593 0.519502,0 0.989995,0.23525 1.303657,0.60772 l 0.5097,-0.69594 c -0.460691,-0.47049 -1.107618,-0.76455 -1.813357,-0.76455 -1.401676,0 -2.5387,1.13702 -2.5387,2.5387 0,0.9998 0.578314,1.85256 1.401676,2.27405 l 0.5097,-0.70574 c -0.627323,-0.24505 -1.058608,-0.86257 -1.058608,-1.56831 z m -0.30386,-2.73474 c 0.333266,-0.24504 0.333266,-0.24504 0.08822,-0.57831 l -0.499898,-0.68614 c -0.245048,-0.34306 -0.245048,-0.34306 -0.588115,-0.0882 -0.333266,0.24505 -0.333266,0.24505 -0.08822,0.57831 l 0.499899,0.68614 c 0.245049,0.33326 0.245049,0.33326 0.588116,0.0882 z m 1.989792,-0.64692 c 0.421483,0 0.421483,0 0.421483,-0.42149 v -0.84297 c 0,-0.42147 0,-0.42147 -0.421483,-0.42147 -0.421483,0 -0.421483,0 -0.421483,0.42147 v 0.84297 c 0,0.42149 0,0.42149 0.421483,0.42149 z"
       id="path5056"
       style="stroke-width:0.0980193" />
    <path
       inkscape:connector-curvature="0"
       d="m 31.79725,287.6784 c -0.137228,0.43127 -0.137228,0.43127 0.303859,0.57831 l 0.431285,0.13722 c 0.441087,0.14703 0.441087,0.14703 0.578314,-0.29405 0.147029,-0.4411 0.147029,-0.4411 -0.294058,-0.57832 l -0.441086,-0.13723 c -0.431286,-0.14703 -0.431286,-0.14703 -0.578314,0.29407 z m -8.312041,-2.70534 c -0.14703,0.44108 -0.14703,0.44108 0.294058,0.57832 l 0.441087,0.13721 c 0.431285,0.14703 0.431285,0.14703 0.578315,-0.29405 0.137227,-0.43128 0.137227,-0.43128 -0.303861,-0.57831 L 24.063523,284.679 c -0.441087,-0.14703 -0.441087,-0.14703 -0.578314,0.29406 z m 6.978978,-1.41148 c 0.372473,0.27446 0.372473,0.27446 0.646927,-0.098 l 0.264653,-0.37247 c 0.274453,-0.37248 0.274453,-0.37248 -0.09802,-0.64693 -0.372473,-0.26465 -0.372473,-0.26465 -0.646927,0.098 l -0.274454,0.38227 c -0.264652,0.37248 -0.264652,0.37248 0.107821,0.63713 z m -5.136214,7.077 c 0.372473,0.26466 0.372473,0.26466 0.646928,-0.098 l 0.264652,-0.37248 c 0.264652,-0.37247 0.264652,-0.37247 -0.09802,-0.63713 -0.372474,-0.27445 -0.372474,-0.27445 -0.646928,0.098 l -0.264653,0.37248 c -0.284256,0.37247 -0.284256,0.37247 0.09802,0.63712 z m 0.803759,-7.077 c 0.372473,-0.26465 0.372473,-0.26465 0.09802,-0.63713 L 25.9651,282.55198 c -0.274455,-0.37247 -0.274455,-0.37247 -0.646928,-0.098 -0.372474,0.26465 -0.372474,0.26465 -0.09802,0.64693 l 0.264653,0.37247 c 0.274454,0.36268 0.274454,0.36268 0.646928,0.0882 z m 5.136213,7.077 c 0.372474,-0.26466 0.372474,-0.26466 0.09802,-0.64693 l -0.264653,-0.37248 c -0.264652,-0.37247 -0.264652,-0.37247 -0.646927,-0.098 -0.372474,0.26465 -0.372474,0.26465 -0.09802,0.63713 l 0.264652,0.37248 c 0.284256,0.37248 0.284256,0.37248 0.646927,0.10782 z m -6.469276,-2.96017 c -0.14703,-0.4411 -0.14703,-0.4411 -0.578315,-0.29407 l -0.441087,0.13723 c -0.441088,0.13722 -0.441088,0.13722 -0.294058,0.57833 0.137227,0.44108 0.137227,0.44108 0.578314,0.29405 l 0.431285,-0.13722 c 0.441088,-0.13723 0.441088,-0.13723 0.303861,-0.57832 z m 8.312039,-2.70534 c -0.137227,-0.44108 -0.137227,-0.44108 -0.578314,-0.29406 l -0.431285,0.13723 c -0.441087,0.14702 -0.441087,0.14702 -0.303859,0.57831 0.147028,0.44108 0.147028,0.44108 0.578314,0.29405 l 0.441086,-0.1372 c 0.441087,-0.13725 0.441087,-0.13725 0.294058,-0.57833 z m -4.812749,5.25383 c -0.460691,0 -0.460691,0 -0.460691,0.46069 v 0.46069 c 0,0.46069 0,0.46069 0.460691,0.46069 0.460691,0 0.460691,0 0.460691,-0.46069 v -0.46069 c 0,-0.46069 0,-0.46069 -0.460691,-0.46069 z m 0,-8.74331 c -0.460691,0 -0.460691,0 -0.460691,0.46069 v 0.46069 c 0,0.46069 0,0.46069 0.460691,0.46069 0.460691,0 0.460691,0 0.460691,-0.46069 v -0.46069 c 0,-0.46069 0,-0.46069 -0.460691,-0.46069 z m 0,6.90055 c -1.019401,0 -1.842764,-0.82335 -1.842764,-1.84276 0,-1.01941 0.823363,-1.84276 1.842764,-1.84276 1.019402,0 1.842764,0.82335 1.842764,1.84276 0,1.01941 -0.823362,1.84276 -1.842764,1.84276 z m 0,0.92138 c 1.529102,0 2.764146,-1.23505 2.764146,-2.76414 0,-1.52909 -1.235044,-2.76414 -2.764146,-2.76414 -1.529101,0 -2.764146,1.23505 -2.764146,2.76414 0,1.52911 1.235045,2.76414 2.764146,2.76414 z"
       id="path4499"
       style="stroke-width:0.0980193" />
    <path
       inkscape:connector-curvature="0"
       d="m 13.223431,287.59997 c -0.127426,0.40188 -0.127426,0.40188 0.274453,0.52931 l 0.803759,0.26465 c 0.40188,0.12742 0.40188,0.12742 0.529305,-0.27445 0.127424,-0.40188 0.127424,-0.40188 -0.274454,-0.52931 l -0.813561,-0.25485 c -0.392077,-0.13722 -0.392077,-0.13722 -0.519502,0.26465 z m -8.0375858,-2.61711 c -0.1274253,0.40188 -0.1274253,0.40188 0.2744547,0.52931 l 0.8135594,0.25485 c 0.4018793,0.13722 0.4018793,0.13722 0.5293047,-0.27446 0.1274253,-0.40188 0.1274253,-0.40188 -0.2744547,-0.5293 l -0.8037578,-0.26465 c -0.4116809,-0.11763 -0.4116809,-0.11763 -0.5391063,0.28425 z m 6.8123438,-1.16644 c 0.343068,0.25485 0.343068,0.25485 0.588115,-0.0882 l 0.499899,-0.68613 c 0.245049,-0.33327 0.245049,-0.33327 -0.08822,-0.57832 -0.343068,-0.25485 -0.343068,-0.25485 -0.588117,0.0882 l -0.499898,0.68614 c -0.254851,0.33326 -0.254851,0.33326 0.08822,0.5783 z m -4.9695814,6.83196 c 0.3430678,0.25485 0.3430678,0.25485 0.588116,-0.0882 l 0.4998989,-0.68614 c 0.2450483,-0.33326 0.2450483,-0.33326 -0.088217,-0.57831 -0.3430672,-0.25485 -0.3430672,-0.25485 -0.5881161,0.0882 l -0.499898,0.68613 c -0.2548507,0.33327 -0.2548507,0.33327 0.088216,0.57832 z m 0.9899958,-6.83196 c 0.3332658,-0.24504 0.3332658,-0.24504 0.088218,-0.5783 l -0.4998989,-0.68614 c -0.2450489,-0.34307 -0.2450489,-0.34307 -0.588116,-0.0882 -0.3332658,0.24505 -0.3332658,0.24505 -0.088217,0.57832 l 0.499898,0.68613 c 0.2450488,0.33327 0.2450488,0.33327 0.5881161,0.0882 z m 4.9695806,6.83196 c 0.333266,-0.24505 0.333266,-0.24505 0.08822,-0.57832 l -0.499898,-0.68613 c -0.245049,-0.34307 -0.245049,-0.34307 -0.588116,-0.0882 -0.333267,0.24505 -0.333267,0.24505 -0.08822,0.57831 l 0.499899,0.68614 c 0.245048,0.34307 0.245048,0.34307 0.588115,0.0882 z M 6.7933623,287.59997 C 6.6561347,287.1981 6.6561347,287.1981 6.2640577,287.32552 l -0.8135602,0.25485 c -0.4018792,0.13723 -0.4018792,0.13723 -0.2744546,0.5293 0.1372277,0.40188 0.1372277,0.40188 0.5293046,0.27446 l 0.8037578,-0.26465 c 0.4116817,-0.12743 0.4116817,-0.12743 0.284257,-0.51951 z m 8.0375857,-2.61711 c -0.137227,-0.40188 -0.137227,-0.40188 -0.529305,-0.27445 l -0.803759,0.26465 c -0.401879,0.13722 -0.401879,0.13722 -0.274453,0.5293 0.137227,0.40188 0.137227,0.40188 0.529304,0.27445 l 0.813561,-0.25485 c 0.392076,-0.13722 0.392076,-0.13722 0.264652,-0.5391 z m -4.822553,4.94997 c -0.4214833,0 -0.4214833,0 -0.4214833,0.42148 v 0.84297 c 0,0.42149 0,0.42149 0.4214833,0.42149 0.421484,0 0.421484,0 0.421484,-0.42149 v -0.84297 c 0,-0.42148 0,-0.42148 -0.421484,-0.42148 z m 0,-8.44926 c -0.4214833,0 -0.4214833,0 -0.4214833,0.42148 v 0.84296 c 0,0.42148 0,0.42148 0.4214833,0.42148 0.421484,0 0.421484,0 0.421484,-0.42148 v -0.84296 c 0,-0.42148 0,-0.42148 -0.421484,-0.42148 z m 0,6.75353 c -0.9311833,0 -1.6859321,-0.75475 -1.6859321,-1.68593 0,-0.93118 0.7547488,-1.68593 1.6859321,-1.68593 0.931184,0 1.685934,0.75475 1.685934,1.68593 0,0.93118 -0.75475,1.68593 -1.685934,1.68593 z m 0,0.85277 c 1.401677,0 2.538702,-1.13702 2.538702,-2.5387 0,-1.40167 -1.137025,-2.5387 -2.538702,-2.5387 -1.4016765,0 -2.5386999,1.13703 -2.5386999,2.5387 0,1.40168 1.1370234,2.5387 2.5386999,2.5387 z"
       id="path4485"
       style="stroke-width:0.0980193" />
  </g>
</svg>
