<?xml version="1.0" encoding="UTF-8" standalone="no"?>
<!-- Created with Inkscape (http://www.inkscape.org/) -->

<svg
   xmlns:dc="http://purl.org/dc/elements/1.1/"
   xmlns:cc="http://creativecommons.org/ns#"
   xmlns:rdf="http://www.w3.org/1999/02/22-rdf-syntax-ns#"
   xmlns:svg="http://www.w3.org/2000/svg"
   xmlns="http://www.w3.org/2000/svg"
   xmlns:sodipodi="http://sodipodi.sourceforge.net/DTD/sodipodi-0.dtd"
   xmlns:inkscape="http://www.inkscape.org/namespaces/inkscape"
   width="210"
   height="64"
   viewBox="0 0 210 64"
   version="1.1"
   id="svg5969"
   inkscape:version="0.92.1 r15371"
   sodipodi:docname="Sonos.svg">
  <defs
     id="defs5963" />
  <sodipodi:namedview
     id="base"
     pagecolor="#ffffff"
     bordercolor="#666666"
     borderopacity="1.0"
     inkscape:pageopacity="0.0"
     inkscape:pageshadow="2"
     inkscape:zoom="1.4142136"
     inkscape:cx="-79.545698"
     inkscape:cy="-92.230447"
     inkscape:document-units="px"
     inkscape:current-layer="layer1"
     showgrid="false"
     inkscape:window-width="1600"
     inkscape:window-height="837"
     inkscape:window-x="-8"
     inkscape:window-y="-8"
     inkscape:window-maximized="1"
     units="px"
     showguides="false"
     inkscape:guide-bbox="true">
    <sodipodi:guide
       position="0,63.241658"
       orientation="1,0"
       id="guide11"
       inkscape:locked="false" />
    <sodipodi:guide
       position="0.88291925,64.001379"
       orientation="0,1"
       id="guide13"
       inkscape:locked="false" />
    <sodipodi:guide
       position="210.37891,-0.00390625"
       orientation="0,1"
       id="guide15"
       inkscape:locked="false" />
    <sodipodi:guide
       position="210,-0.453125"
       orientation="1,0"
       id="guide17"
       inkscape:locked="false" />
  </sodipodi:namedview>
  <metadata
     id="metadata5966">
    <rdf:RDF>
      <cc:Work
         rdf:about="">
        <dc:format>image/svg+xml</dc:format>
        <dc:type
           rdf:resource="http://purl.org/dc/dcmitype/StillImage" />
        <dc:title />
      </cc:Work>
    </rdf:RDF>
  </metadata>
  <g
     inkscape:label="Layer 1"
     inkscape:groupmode="layer"
     id="layer1"
     transform="translate(0,-201.62498)">
    <rect
       style="opacity:1;fill:#a4adeb;fill-opacity:1;stroke:none;stroke-width:1.1547004;stroke-miterlimit:4;stroke-dasharray:none;stroke-opacity:1"
       id="rect5952"
       width="210"
       height="64"
       x="9.4368957e-015"
       y="201.62498"
       inkscape:label="#rect5952" />
    <path
       inkscape:connector-curvature="0"
       d="m 41.759556,215.71575 3.944055,-2.44391 c 0.427485,-0.26573 0.989966,-0.13378 1.255701,0.29493 0.265126,0.42809 0.133171,0.99057 -0.294923,1.2557 l -3.944055,2.4439 c -0.14959,0.093 -0.315598,0.13682 -0.479781,0.13682 -0.30526,0 -0.603223,-0.15324 -0.77592,-0.43174 -0.265126,-0.4281 -0.133171,-0.99058 0.294923,-1.2557 z m -1.945272,-0.76498 c 0.04135,0.005 0.0827,0.009 0.123442,0.009 0.449376,0 0.840985,-0.33202 0.902401,-0.78991 l 0.51505,-3.81332 c 0.0675,-0.49924 -0.28276,-0.95834 -0.781392,-1.02584 -0.497416,-0.0657 -0.958346,0.28215 -1.026452,0.782 l -0.51505,3.81332 c -0.06689,0.49863 0.283369,0.95834 0.782001,1.02523 z m -5.934936,-3.474 c -0.367285,-0.34539 -0.94436,-0.32898 -1.289754,0.0371 -0.346002,0.36668 -0.329583,0.94375 0.03709,1.28976 l 2.666464,2.51687 c 0.176345,0.16601 0.401338,0.24871 0.625722,0.24871 0.242019,0 0.484038,-0.0961 0.663423,-0.2858 0.346002,-0.36668 0.329584,-0.94375 -0.03709,-1.28976 z m 2.733353,10.9626 c 0.116753,0.21222 0.144725,0.46154 0.07723,0.69383 l -3.120705,10.79598 c -1.10003,3.80602 -4.367892,6.46458 -7.947703,6.46458 -0.361204,0 -0.721192,-0.0304 -1.077531,-0.0851 l -3.742779,12.95044 2.909091,0.84098 c 0.484037,0.13986 0.762541,0.64579 0.622681,1.12922 -0.114928,0.39951 -0.479781,0.65917 -0.875646,0.65917 -0.08392,0 -0.169048,-0.0116 -0.253572,-0.0359 l -7.570081,-2.1879 c -0.484038,-0.13986 -0.762542,-0.64579 -0.622682,-1.12922 0.139252,-0.48464 0.644573,-0.76315 1.129219,-0.62329 l 2.90909,0.84099 3.743387,-12.95348 c -1.628459,-0.70538 -2.948617,-1.99514 -3.765886,-3.7142 -0.938887,-1.97567 -1.104287,-4.28154 -0.465187,-6.49376 l 0.09121,-0.3156 -0.01642,-0.0286 c 0.0043,-0.002 0.01946,-0.011 0.02919,-0.0158 l 3.016114,-10.436 c 0.13986,-0.48404 0.644573,-0.76497 1.129218,-0.62268 l 13.255699,3.83095 c 0.233506,0.0669 0.42931,0.22378 0.546063,0.43539 z m -4.775919,10.91699 c -0.908483,0.22074 -1.641228,0.36425 -2.321678,0.36425 -1.330496,0 -2.501064,-0.53208 -4.595317,-2.02797 -2.083916,-1.48921 -3.827911,-1.34631 -4.723624,-1.10672 -0.363028,1.62967 -0.201277,3.28671 0.478565,4.71693 0.729705,1.53482 1.966555,2.62208 3.483125,3.05929 0.476741,0.13804 0.969291,0.20797 1.464275,0.20797 2.772271,0 5.319549,-2.11615 6.195195,-5.14686 z m 2.848281,-9.85344 -11.50319,-3.32381 -2.447552,8.46944 c 1.332319,-0.13499 3.186378,0.0882 5.246578,1.55914 2.84889,2.03527 3.270295,1.92764 6.017026,1.23016 0.136211,-0.0347 0.279112,-0.0705 0.425053,-0.10763 z m 24.229248,33.07874 -7.599877,2.07966 c -0.08027,0.0219 -0.161751,0.0322 -0.240802,0.0322 -0.40073,0 -0.768623,-0.26635 -0.879295,-0.67133 -0.132563,-0.48586 0.153238,-0.98754 0.639708,-1.12071 l 2.919428,-0.79842 -3.558528,-13.00334 c -0.322894,0.045 -0.648829,0.0699 -0.97598,0.0699 -3.625418,0 -6.896928,-2.70599 -7.955001,-6.57951 l -2.965642,-10.83916 c -0.06324,-0.2335 -0.03223,-0.48221 0.08817,-0.69261 0.120402,-0.2104 0.31803,-0.36424 0.551536,-0.42809 l 13.307994,-3.64001 c 0.485254,-0.13135 0.987534,0.15324 1.120705,0.6391 l 2.965643,10.83977 c 0.607479,2.22073 0.409243,4.52417 -0.558832,6.48646 -0.842202,1.70751 -2.179994,2.97781 -3.818182,3.66069 l 3.558528,13.00517 2.920644,-0.79903 c 0.48343,-0.13135 0.987534,0.15385 1.120706,0.63971 0.131347,0.48464 -0.154455,0.98692 -0.640925,1.11949 z M 42.444262,233.07908 c 2.746123,0.69687 3.168744,0.8045 6.017634,-1.23016 2.133779,-1.52326 4.044998,-1.70873 5.385831,-1.54333 l -2.001216,-7.31529 -11.54819,3.15901 1.877775,6.86227 c 0.09,0.0225 0.183034,0.0462 0.268166,0.0675 z m 8.168439,8.07844 c 1.522043,-0.41715 2.773487,-1.48495 3.524475,-3.00882 0.770447,-1.56157 0.924901,-3.40772 0.434783,-5.19793 l -0.186683,-0.68227 c -0.84585,-0.25966 -2.663423,-0.50532 -4.862268,1.06537 -2.094253,1.49589 -3.265429,2.02797 -4.596533,2.02797 -0.650653,0 -1.345089,-0.13013 -2.198236,-0.33384 l 0.29553,1.08118 c 0.842202,3.083 3.38948,5.23624 6.195196,5.23624 0.468835,0 0.935846,-0.0632 1.388872,-0.18668 6.08e-4,-6.1e-4 0.0012,-0.001 0.0024,-0.001 6.08e-4,6.1e-4 0.0018,6.1e-4 0.0024,0 z"
       id="script.sonos_guest_mode"
       style="stroke-width:0.60808748"
       inkscape:label="#path4490" />
    <path
       inkscape:connector-curvature="0"
       d="m 136.25362,219.26253 h -13.07929 v -6.82397 c 0,-0.62781 -0.50952,-1.13734 -1.13733,-1.13734 H 95.878412 c -0.627806,0 -1.137329,0.50953 -1.137329,1.13734 v 35.25722 c 0,0.62781 0.509523,1.13733 1.137329,1.13733 H 108.9577 v 6.82397 c 0,0.62781 0.50953,1.13734 1.13734,1.13734 h 26.15858 c 0.62781,0 1.13733,-0.50953 1.13733,-1.13734 v -35.25722 c 0,-0.62781 -0.50952,-1.13733 -1.13733,-1.13733 z m -39.237878,27.29591 v -32.98256 h 23.883928 v 5.68665 h -10.31899 c -0.41399,-0.51919 -1.04805,-0.85299 -1.76515,-0.85299 -1.25617,0 -2.27465,1.01847 -2.27465,2.27465 0,1.25618 1.01848,2.27466 2.27465,2.27466 0.0484,0 0.0944,-0.008 0.14217,-0.0113 v 3.99203 c -4.39009,0 -7.9613,3.57178 -7.9613,7.9613 0,4.39009 3.57121,7.96131 7.9613,7.96131 v 3.69632 z m 11.941958,-5.97098 c -3.13561,0 -5.68664,-2.55102 -5.68664,-5.68665 0,-3.13561 2.55103,-5.68664 5.68664,-5.68664 z m 26.1586,13.9323 H 111.23237 V 221.5372 H 135.1163 Z M 120.75751,228.6455 c 0,-1.25618 1.01847,-2.27466 2.27465,-2.27466 1.25618,0 2.27466,1.01848 2.27466,2.27466 0,1.25618 -1.01848,2.27466 -2.27466,2.27466 -1.25618,0 -2.27465,-1.01848 -2.27465,-2.27466 z m 2.41682,22.17794 c 4.3901,0 7.96131,-3.57122 7.96131,-7.96131 0,-4.38953 -3.57121,-7.96132 -7.96131,-7.96132 -4.3901,0 -7.96131,3.57179 -7.96131,7.96132 0,4.39009 3.57121,7.96131 7.96131,7.96131 z m 0,-13.64796 c 3.13619,0 5.68665,2.55102 5.68665,5.68665 0,3.13562 -2.55046,5.68664 -5.68665,5.68664 -3.13618,0 -5.68665,-2.55102 -5.68665,-5.68664 0,-3.13563 2.55047,-5.68665 5.68665,-5.68665 z"
       id="script.sonos_group_players"
       style="stroke-width:0.56866491"
       inkscape:label="#path5062" />
  </g>
</svg>
